<svg width="25" height="26" viewBox="0 0 25 26" fill="none" xmlns="http://www.w3.org/2000/svg">
<path d="M14.2048 22.6002C14.2048 22.6002 15.4048 22.6002 16.6048 25.0002C16.6048 25.0002 20.4172 19.0002 23.8048 17.8002M6.4048 17.8002H11.2048M6.4048 11.8003H16.0048M5.8048 2.80029C3.9376 2.85669 2.8252 3.06429 2.0548 3.83469C1 4.89068 1 6.58868 1 9.98586V17.793C1 21.1914 1 22.8894 2.0548 23.9454C3.1084 25.0002 4.8064 25.0002 8.2 25.0002H11.2M16.5952 2.80029C18.4624 2.85669 19.576 3.06429 20.3452 3.83469C21.4012 4.89068 21.4012 6.58868 21.4012 9.98586V14.8002" stroke="#13AEBF" stroke-width="2" stroke-linecap="round" stroke-linejoin="round"/>
<path d="M5.79999 3.09999C5.79999 1.9408 6.74079 1 7.89999 1H14.5C15.0569 1 15.5911 1.22125 15.9849 1.61507C16.3787 2.0089 16.6 2.54304 16.6 3.09999C16.6 3.65694 16.3787 4.19109 15.9849 4.58491C15.5911 4.97873 15.0569 5.19998 14.5 5.19998H7.89999C7.34303 5.19998 6.80889 4.97873 6.41506 4.58491C6.02124 4.19109 5.79999 3.65694 5.79999 3.09999Z" stroke="#13AEBF" stroke-width="2" stroke-linecap="round" stroke-linejoin="round"/>
</svg>
