<svg width="23" height="26" viewBox="0 0 23 26" fill="none" xmlns="http://www.w3.org/2000/svg">
<path d="M6.51264 17.6532H11.4106M6.51264 11.5308H16.3085M5.90285 2.34717C3.99755 2.40472 2.86245 2.61655 2.07632 3.40267C1 4.48021 1 6.21285 1 9.67935V17.6458C1 21.1135 1 22.8462 2.07632 23.9237C3.15143 25 4.88408 25 8.34693 25H14.4694C17.9334 25 19.6649 25 20.74 23.9225C21.8175 22.8462 21.8175 21.1135 21.8175 17.6458V9.67935C21.8175 6.21407 21.8175 4.48021 20.74 3.40267C19.9551 2.61655 18.8188 2.40472 16.9134 2.34717" stroke="#2F86EB" stroke-width="2" stroke-linecap="round" stroke-linejoin="round"/>
<path d="M5.89807 3.14284C5.89807 1.95999 6.85807 1 8.04093 1H14.7756C15.3439 1 15.889 1.22576 16.2908 1.62762C16.6927 2.02948 16.9185 2.57452 16.9185 3.14284C16.9185 3.71115 16.6927 4.25619 16.2908 4.65805C15.889 5.05991 15.3439 5.28567 14.7756 5.28567H8.04093C7.47261 5.28567 6.92756 5.05991 6.5257 4.65805C6.12384 4.25619 5.89807 3.71115 5.89807 3.14284Z" stroke="#2F86EB" stroke-width="2" stroke-linecap="round" stroke-linejoin="round"/>
</svg>
