<svg width="20" height="20" viewBox="0 0 20 20" fill="none" xmlns="http://www.w3.org/2000/svg">
<path d="M7.13083 11.2498H3.90166C3.47383 11.2523 3.06434 11.4239 2.76266 11.7273C2.46099 12.0307 2.29166 12.4412 2.29166 12.869V16.0982C2.29145 16.3097 2.33294 16.5191 2.41377 16.7146C2.4946 16.91 2.61319 17.0876 2.76273 17.2371C2.91228 17.3866 3.08985 17.5052 3.28529 17.5861C3.48072 17.6669 3.69018 17.7084 3.90166 17.7082H7.13083C7.55873 17.7086 7.96936 17.5394 8.27271 17.2376C8.57607 16.9358 8.7474 16.5261 8.74916 16.0982V12.869C8.74938 12.6564 8.70767 12.4459 8.62642 12.2494C8.54517 12.053 8.42597 11.8745 8.27565 11.7242C8.12533 11.5739 7.94684 11.4547 7.7504 11.3734C7.55396 11.2922 7.34342 11.2505 7.13083 11.2507M7.13083 2.2915H3.90166C3.69018 2.29129 3.48072 2.33278 3.28529 2.41361C3.08985 2.49444 2.91228 2.61303 2.76273 2.76257C2.61319 2.91212 2.4946 3.08969 2.41377 3.28513C2.33294 3.48056 2.29145 3.69001 2.29166 3.9015V7.13067C2.29122 7.55857 2.46044 7.9692 2.76223 8.27255C3.06402 8.57591 3.47377 8.74724 3.90166 8.749H7.13083C7.34342 8.74922 7.55396 8.70751 7.7504 8.62626C7.94684 8.54501 8.12533 8.42581 8.27565 8.27549C8.42597 8.12517 8.54517 7.94668 8.62642 7.75024C8.70767 7.5538 8.74938 7.34326 8.74916 7.13067V3.9015C8.7474 3.47361 8.57607 3.06386 8.27271 2.76207C7.96936 2.46028 7.55873 2.29106 7.13083 2.2915ZM16.0983 2.2915H12.8692C12.4413 2.29106 12.0306 2.46028 11.7273 2.76207C11.4239 3.06386 11.2526 3.47361 11.2508 3.9015V7.13067C11.2511 7.55981 11.4216 7.97131 11.7251 8.27476C12.0285 8.57821 12.44 8.74878 12.8692 8.749H16.0983C16.5262 8.74724 16.936 8.57591 17.2378 8.27255C17.5396 7.9692 17.7088 7.55857 17.7083 7.13067V3.9015C17.7086 3.69001 17.6671 3.48056 17.5862 3.28513C17.5054 3.08969 17.3868 2.91212 17.2373 2.76257C17.0877 2.61303 16.9101 2.49444 16.7147 2.41361C16.5193 2.33278 16.3098 2.29129 16.0983 2.2915ZM14.4792 11.2498C13.6227 11.2498 12.8014 11.5901 12.1958 12.1956C11.5902 12.8012 11.25 13.6226 11.25 14.479C11.25 15.3354 11.5902 16.1568 12.1958 16.7624C12.8014 17.368 13.6227 17.7082 14.4792 17.7082C15.3356 17.7082 16.1569 17.368 16.7625 16.7624C17.3681 16.1568 17.7083 15.3354 17.7083 14.479C17.7083 13.6226 17.3681 12.8012 16.7625 12.1956C16.1569 11.5901 15.3356 11.2498 14.4792 11.2498Z" stroke="#85949B" stroke-width="1.2" stroke-linecap="round" stroke-linejoin="round"/>
</svg>
