<svg width="20" height="20" viewBox="0 0 20 20" fill="none" xmlns="http://www.w3.org/2000/svg">
<path d="M2.91667 8.33317C2.91667 5.19067 2.91667 3.619 3.95417 2.64317C4.99167 1.66734 6.66083 1.6665 10 1.6665H10.6442C13.3608 1.6665 14.7208 1.6665 15.6642 2.3315C15.9342 2.5215 16.1742 2.74817 16.3767 3.00234C17.0833 3.89067 17.0833 5.169 17.0833 7.72734V9.84817C17.0833 12.3173 17.0833 13.5523 16.6925 14.5382C16.0642 16.124 14.7358 17.374 13.0508 17.9657C12.0033 18.3332 10.6925 18.3332 8.0675 18.3332C6.56917 18.3332 5.81917 18.3332 5.22083 18.1232C4.25833 17.7848 3.49917 17.0707 3.14 16.1648C2.91667 15.6015 2.91667 14.8957 2.91667 13.4848V8.33317Z" stroke="white" stroke-width="1.2" stroke-linecap="round" stroke-linejoin="round"/>
<path d="M17.0833 9.99967C17.0833 10.7363 16.7907 11.4428 16.2698 11.9637C15.7489 12.4845 15.0425 12.7772 14.3058 12.7772C13.7508 12.7772 13.0967 12.6805 12.5575 12.8247C12.322 12.888 12.1073 13.0121 11.9349 13.1845C11.7624 13.357 11.6383 13.5717 11.575 13.8072C11.4308 14.3463 11.5275 15.0005 11.5275 15.5555C11.5275 15.9203 11.4557 16.2814 11.3161 16.6184C11.1765 16.9554 10.9719 17.2616 10.714 17.5195C10.4561 17.7774 10.1499 17.982 9.81291 18.1216C9.47592 18.2612 9.11475 18.333 8.75 18.333M6.66667 5.83301H12.5M6.66667 9.16634H9.16667" stroke="white" stroke-width="1.2" stroke-linecap="round" stroke-linejoin="round"/>
</svg>
