<svg width="20" height="20" viewBox="0 0 20 20" fill="none" xmlns="http://www.w3.org/2000/svg">
<path d="M15 8.33301H10.8333" stroke="#85949B" stroke-width="1.2" stroke-linecap="round"/>
<path d="M8.33334 2.5H13.75C14.1367 2.5 14.3308 2.5 14.4933 2.52167C15.0388 2.5936 15.5452 2.84343 15.9342 3.23244C16.3232 3.62145 16.5731 4.12791 16.645 4.67333C16.6667 4.83583 16.6667 5.03 16.6667 5.41667" stroke="#85949B" stroke-width="1.2"/>
<path d="M1.66667 5.7915C1.66667 5.05567 1.66667 4.68817 1.725 4.3815C1.84935 3.72304 2.16928 3.11734 2.64304 2.64343C3.11681 2.16951 3.72241 1.8494 4.38083 1.72484C4.68833 1.6665 5.05667 1.6665 5.79167 1.6665C6.11333 1.6665 6.275 1.6665 6.43 1.68067C7.09754 1.74336 7.73066 2.0059 8.24667 2.434C8.36667 2.53317 8.48 2.6465 8.70833 2.87484L9.16667 3.33317C9.84667 4.01317 10.1867 4.35317 10.5933 4.579C10.8168 4.70358 11.054 4.80201 11.3 4.87234C11.7483 4.99984 12.2292 4.99984 13.19 4.99984H13.5017C15.695 4.99984 16.7925 4.99984 17.505 5.6415C17.5711 5.69984 17.6333 5.76206 17.6917 5.82817C18.3333 6.54067 18.3333 7.63817 18.3333 9.8315V11.6665C18.3333 14.809 18.3333 16.3807 17.3567 17.3565C16.38 18.3323 14.8092 18.3332 11.6667 18.3332H8.33333C5.19083 18.3332 3.61917 18.3332 2.64333 17.3565C1.6675 16.3798 1.66667 14.809 1.66667 11.6665V5.7915Z" stroke="#85949B" stroke-width="1.2"/>
</svg>
